<svg width="35" height="60" viewBox="0 0 35 60" fill="none" xmlns="http://www.w3.org/2000/svg">
<path d="M4.375 0.500088L31.85 4.67509C33.675 4.97509 35 6.52509 35 8.37509V22.7251L34 22.5251C33.625 22.4501 33.25 22.5501 32.95 22.7751C32.675 23.0251 32.5 23.3751 32.5 23.7501V8.37509C32.5 7.75009 32.05 7.22509 31.45 7.12509L3.975 2.97509C3.9 2.95009 3.825 2.95009 3.75 2.95009C3.45 2.95009 3.175 3.05009 2.95 3.25009C2.65 3.50009 2.5 3.82509 2.5 4.20009V56.2501C2.5 56.9501 3.075 57.5001 3.75 57.5001H10V58.7501C10 59.4501 10.55 60.0001 11.25 60.0001H3.75C1.675 60.0001 0 58.3251 0 56.2501V4.20009C0 3.10009 0.475 2.05009 1.325 1.35009C2.175 0.625089 3.275 0.325088 4.375 0.500088Z" fill="white"/>
</svg>
