<svg width="16" height="12" viewBox="0 0 16 12" fill="none" xmlns="http://www.w3.org/2000/svg">
<path d="M0.124051 3.43742C1.17786 4.22786 2.13829 5.13829 2.94882 6.11075C2.1667 5.83932 1.3007 5.68744 0.472487 5.68744H0.31155C0.173832 5.68744 0.052364 5.7776 0.0124579 5.90938C-0.0274482 6.04119 0.0236141 6.18357 0.138207 6.25994C0.297176 6.40063 2.27739 7.41297 2.84701 9.48718C1.95639 9.67833 1.27511 10.406 1.1463 11.3124H0.311582C0.138989 11.3124 -0.000917051 11.4523 -0.000917051 11.6249C-0.000917051 11.7975 0.138989 11.9374 0.311582 11.9374H3.93657C4.10916 11.9374 4.24907 11.7975 4.24907 11.6249C4.24907 11.4523 4.10916 11.3124 3.93657 11.3124H1.78026C1.91951 10.622 2.51148 10.096 3.24185 10.064C3.66557 10.045 4.07604 10.1969 4.38544 10.4899C4.5335 10.6301 4.7745 10.5931 4.87356 10.4147C5.30687 9.6339 6.13156 9.1249 7.06156 9.1249C7.85021 9.1249 8.55308 9.48699 9.01502 10.0652C8.76414 10.3706 8.62405 10.7552 8.62405 11.1561C8.62405 11.2085 8.62655 11.2606 8.63124 11.3124H6.74909C6.57649 11.3124 6.43659 11.4523 6.43659 11.6249C6.43659 11.7975 6.57649 11.9374 6.74909 11.9374H15.6865C15.8591 11.9374 15.999 11.7975 15.999 11.6249C15.999 11.4523 15.8591 11.3124 15.6865 11.3124H14.8518C14.723 10.4059 14.0416 9.67818 13.1511 9.48712C13.7205 7.41381 15.6972 6.40385 15.8599 6.25991C15.9745 6.18354 16.0255 6.04116 15.9856 5.90935C15.9457 5.77757 15.8242 5.68741 15.6865 5.68741H15.5256C14.7835 5.68741 13.9953 5.80901 13.2863 6.02469C14.4137 4.39501 15.694 3.59264 15.874 3.43745C15.9907 3.34989 16.0314 3.19317 15.9718 3.05989C15.9123 2.92661 15.7684 2.85236 15.6252 2.88095C13.7807 3.2498 12.0902 4.17067 10.8076 5.43673C10.9888 4.04973 11.3979 2.71308 12.0285 1.45218C12.0887 1.33187 12.0651 1.18656 11.97 1.09146C11.8748 0.996369 11.7296 0.972744 11.6093 1.0329C9.94967 1.86268 8.63342 3.3357 8.02968 5.20351C7.06306 3.09361 5.47134 1.30618 3.47232 0.106935C3.34932 0.0331226 3.19195 0.0525287 3.09057 0.153935C2.98917 0.25534 2.96982 0.412715 3.04357 0.535652C4.10385 2.39099 4.79856 3.20099 5.33031 4.8541C3.96888 3.56958 2.10354 2.87486 0.31155 2.87486C0.177051 2.87486 0.0576452 2.96092 0.0150829 3.08852C-0.0274169 3.2162 0.0164579 3.3567 0.124051 3.43742ZM4.5225 9.80268C4.21275 9.59627 3.85563 9.47281 3.48132 9.44402C3.20482 8.31481 2.45307 7.20969 1.40226 6.37829C2.24632 6.49594 3.07523 6.76678 3.74144 7.15119C4.22669 7.8514 4.63591 8.57706 4.96028 9.31215C4.797 9.4604 4.65056 9.62421 4.5225 9.80268ZM14.2178 11.3124H9.26027C9.25295 11.261 9.24905 11.2088 9.24905 11.1561C9.24905 10.8391 9.38648 10.538 9.62611 10.3299C9.82479 10.1574 10.0793 10.0624 10.3428 10.0624C10.6646 10.0624 10.9687 10.2032 11.177 10.4487C11.1771 10.4488 11.1772 10.4489 11.1773 10.449C11.2917 10.5834 11.4967 10.5963 11.627 10.4763C11.627 10.4763 11.6271 10.4762 11.6272 10.4762C11.9336 10.1935 12.3378 10.0455 12.7566 10.064C13.4867 10.096 14.0786 10.622 14.2178 11.3124ZM12.5168 9.44396C12.2693 9.46305 12.029 9.5238 11.8049 9.62252C11.9561 8.68687 12.2741 7.77081 12.7531 6.89013C13.2934 6.64382 13.9407 6.46553 14.598 6.37657C13.5461 7.20816 12.7935 8.314 12.5168 9.44396ZM14.2844 3.9237C12.661 5.43366 11.4915 7.44644 11.169 9.64912C10.9187 9.51187 10.6355 9.43743 10.3428 9.43743C10.0428 9.43743 9.7503 9.51621 9.49302 9.66262C9.38773 9.53224 9.27233 9.41043 9.14711 9.29818C9.3157 8.92859 9.59167 7.82087 10.6507 6.53344C11.596 5.38391 12.8736 4.47442 14.2844 3.9237ZM11.0516 2.09371C10.5149 3.40692 10.1974 4.78888 10.1043 6.21522C9.62145 6.81591 9.22636 7.46622 8.92692 8.15381C8.8178 7.48284 8.64874 6.82156 8.42389 6.18135C8.7358 4.52629 9.69095 3.05692 11.0516 2.09371ZM4.32563 1.45771C5.905 2.71467 7.1194 4.39779 7.80718 6.31041C8.07886 7.06553 8.26727 7.85287 8.36708 8.65056L8.38486 8.79281C7.97452 8.60028 7.52649 8.4999 7.06156 8.4999C6.84996 8.4999 6.64106 8.52137 6.43656 8.5629V7.91862C6.43656 4.33348 4.65766 2.09699 4.32563 1.45771ZM5.65819 6.17732C5.75962 6.75007 5.81156 7.33547 5.81156 7.91865V8.76053C5.6959 8.81106 5.58359 8.8684 5.47512 8.93243C4.53744 6.86956 3.04654 5.04929 1.3013 3.57605C3.05226 3.84448 4.68872 4.80535 5.65819 6.17732Z" fill="#696969"/>
</svg>
