<svg width="60" height="60" viewBox="0 0 60 60" fill="none" xmlns="http://www.w3.org/2000/svg">
<path d="M49.2462 45.3963C55.1761 45.3963 60 40.5933 60 34.6891C60 30.6942 57.7295 27.0315 54.2331 25.202C54.8744 23.8091 55.209 22.2896 55.209 20.7413C55.209 14.8375 50.3851 10.0345 44.4557 10.0345C41.8561 10.0345 39.413 10.9488 37.5 12.5696V6.97757C38.0347 6.86909 38.4375 6.39827 38.4375 5.83401V1.1668C38.4375 0.522326 37.9129 0 37.2656 0H1.17188C0.524597 0 0 0.522326 0 1.1668V5.83401C0 6.39827 0.402832 6.86909 0.9375 6.97757V58.5735C0.9375 59.2179 1.4621 59.7403 2.10938 59.7403H48.0428C48.3897 59.7403 48.7184 59.5876 48.9413 59.3228C49.6623 58.4654 50.0597 57.3775 50.0597 56.259C50.0597 53.7486 48.1023 51.6857 45.6276 51.5006V44.7728C46.783 45.183 48.0084 45.3963 49.2462 45.3963ZM44.4557 12.3681C49.0929 12.3681 52.8653 16.1242 52.8653 20.7417C52.8653 22.3 52.4323 23.821 51.6129 25.14C51.4284 25.4367 51.3867 25.8005 51.5002 26.1309C51.6133 26.4613 51.8692 26.7239 52.1979 26.8465C55.4626 28.0648 57.6562 31.217 57.6562 34.6891C57.6562 39.3062 53.8838 43.0627 49.2462 43.0627C47.9901 43.0627 46.7519 42.782 45.6276 42.2487V38.288L50.9468 32.9913C51.4046 32.5355 51.4046 31.7967 50.9468 31.3409C50.4895 30.8856 49.7475 30.8856 49.2897 31.3409L45.6276 34.9877V32.2046C45.6276 32.2042 45.6276 32.2037 45.6276 32.2033V23.842C45.6276 23.1975 45.1025 22.6752 44.4557 22.6752C43.8084 22.6752 43.2838 23.1975 43.2838 23.842V29.387L42.3143 28.4217C41.8565 27.9663 41.115 27.9663 40.6567 28.4217C40.1994 28.8774 40.1994 29.6163 40.6567 30.072L43.2838 32.6873V37.8039V37.8053V42.2487C42.1591 42.782 40.9209 43.0627 39.6648 43.0627C38.9273 43.0627 38.2022 42.9679 37.5 42.782V16.034C39.0715 13.7327 41.6473 12.3681 44.4557 12.3681ZM43.2838 50.4701C42.0941 49.157 40.3807 48.3639 38.5204 48.3639C38.1747 48.3639 37.8342 48.3922 37.5 48.4455V45.1767C38.2086 45.3211 38.9319 45.3963 39.6648 45.3963C40.903 45.3963 42.128 45.183 43.2838 44.7728V50.4701ZM3.28125 7.00081H13.9064C14.5532 7.00081 15.0783 6.47849 15.0783 5.83401C15.0783 5.18953 14.5532 4.66721 13.9064 4.66721H2.34375V2.3336H36.0938V4.66721H24.4528C23.806 4.66721 23.2809 5.18953 23.2809 5.83401C23.2809 6.47849 23.806 7.00081 24.4528 7.00081H35.1562V49.3133C34.2764 49.853 33.528 50.6032 32.9906 51.5125C32.9311 51.5189 32.8716 51.5271 32.8125 51.5357V45.7386C32.8125 45.0942 32.2879 44.5718 31.6406 44.5718H26.4844C25.8371 44.5718 25.3125 45.0942 25.3125 45.7386V52.2727C25.3125 52.9172 25.8371 53.4395 26.4844 53.4395H29.637C29.0538 54.2303 28.7082 55.2048 28.7082 56.259C28.7082 56.6482 28.7572 57.0334 28.8501 57.4067H3.28125V7.00081ZM30.4688 51.1059H27.6562V46.9054H30.4688V51.1059ZM47.7159 56.259C47.7159 56.661 47.6157 57.0557 47.4275 57.4067H31.3403C31.1526 57.0557 31.0519 56.661 31.0519 56.259C31.0519 54.914 32.151 53.8197 33.5019 53.8197C33.5509 53.8197 33.5999 53.8215 33.6479 53.8242C34.1386 53.852 34.5927 53.5749 34.7896 53.1273C35.4387 51.6515 36.9031 50.6975 38.5204 50.6975C40.28 50.6975 41.8332 51.8147 42.3857 53.4778C42.496 53.8083 42.7483 54.0731 43.0742 54.1989C43.4001 54.3251 43.7659 54.2996 44.0712 54.1291C44.4347 53.9268 44.8476 53.8197 45.266 53.8197C46.6168 53.8197 47.7159 54.914 47.7159 56.259Z" fill="white"/>
</svg>
